<?xml version="1.0" standalone="no"?>
<!DOCTYPE svg PUBLIC "-//W3C//DTD SVG 20010904//EN"
 "http://www.w3.org/TR/2001/REC-SVG-20010904/DTD/svg10.dtd">
<svg version="1.0" xmlns="http://www.w3.org/2000/svg"
 width="401.000000pt" height="195.000000pt" viewBox="0 0 401.000000 195.000000"
 preserveAspectRatio="xMidYMid meet">

<g transform="translate(0.000000,195.000000) scale(0.100000,-0.100000)"
fill="#FFF2E7" stroke="none">
<path d="M3235 1614 c-70 -19 -96 -32 -119 -56 l-29 -32 -123 1 c-67 0 -127 4
-133 8 -21 12 -180 24 -212 15 -21 -6 -48 -5 -82 4 -29 8 -85 12 -127 10 -112
-5 -109 -5 -195 7 -74 11 -84 10 -126 -8 -31 -14 -50 -31 -61 -54 l-17 -34 -9
25 c-25 66 -83 82 -258 71 -72 -4 -139 -13 -149 -18 -12 -7 -30 -7 -54 -1 -21
6 -84 8 -151 4 -63 -4 -161 -8 -217 -10 -56 -2 -106 -7 -113 -11 -6 -4 -54 -8
-108 -10 -59 -1 -112 -9 -134 -18 -25 -11 -47 -13 -65 -8 -27 8 -114 1 -179
-13 -17 -4 -41 -16 -53 -27 -21 -20 -26 -20 -85 -9 -62 13 -171 4 -267 -20
-70 -19 -103 -86 -88 -181 43 -262 45 -346 13 -408 -8 -14 -14 -45 -14 -68 0
-35 12 -59 79 -161 103 -154 122 -167 247 -167 83 0 94 2 132 28 22 16 43 36
47 45 5 13 10 9 25 -16 10 -17 31 -38 45 -48 33 -22 116 -21 192 2 32 9 78 16
103 15 25 -1 81 3 125 9 270 36 531 51 915 52 314 0 483 -7 689 -28 79 -9 154
-13 167 -10 13 4 49 0 81 -8 67 -17 272 -46 327 -46 50 0 92 23 112 62 l16 32
20 -27 c63 -86 236 -109 324 -42 17 13 64 73 104 132 82 120 96 170 67 234
-14 32 -28 97 -30 144 0 11 10 91 22 178 20 131 22 165 12 197 -16 54 -59 78
-163 91 -77 10 -106 14 -228 36 -43 8 -45 9 -52 52 -9 53 -39 88 -87 101 -43
12 -27 14 -136 -16z m97 -109 c3 -3 2 -20 -1 -37 -6 -28 -12 -33 -56 -45 -68
-17 -75 -16 -75 10 0 34 11 43 65 60 61 18 60 18 67 12z m-1442 -94 l0 -38
-60 -7 c-41 -5 -60 -11 -60 -21 0 -10 16 -15 53 -17 l52 -3 0 -35 0 -35 -53
-3 c-44 -3 -53 -6 -50 -20 2 -13 16 -18 61 -20 l57 -3 0 -39 0 -40 -110 0
-110 0 0 133 c0 72 -3 142 -6 154 -7 25 10 28 149 31 l77 2 0 -39z m345 -94
l0 -129 -33 -29 c-27 -25 -41 -29 -88 -29 -50 0 -59 3 -90 34 -21 21 -34 44
-34 60 0 24 3 26 49 26 34 0 51 -4 55 -15 3 -8 12 -15 21 -15 12 0 15 18 15
108 0 60 3 112 7 116 4 4 28 6 53 4 l45 -3 0 -128z m-685 98 c51 -26 74 -62
77 -123 8 -115 -50 -165 -204 -177 l-91 -6 -7 150 c-4 83 -7 154 -6 158 1 10
126 21 171 15 19 -3 46 -10 60 -17z m1007 -139 c29 -88 51 -161 50 -163 -2 -1
-26 0 -54 4 -41 4 -53 10 -62 29 -9 21 -18 24 -61 24 -45 0 -52 -3 -60 -26 -9
-24 -13 -25 -57 -18 -27 3 -50 8 -52 10 -3 3 79 209 112 281 10 22 16 24 71
21 l61 -3 52 -159z m221 140 c1 -2 15 -43 31 -92 l28 -89 43 89 42 88 61 -7
c34 -3 63 -8 65 -9 4 -4 -25 -306 -30 -311 -1 -2 -25 -1 -52 2 l-49 6 6 71 7
71 -29 -65 -28 -65 -45 -3 -46 -3 -18 73 -19 73 -3 -45 c-5 -87 -7 -90 -63
-90 l-51 0 6 98 c4 53 9 126 12 161 l6 63 61 -7 c34 -3 63 -8 65 -9z m-1584
-68 c3 -40 8 -112 12 -160 l6 -88 -55 0 c-54 0 -55 0 -97 54 -69 90 -71 90
-68 5 l3 -74 -47 -3 c-46 -3 -47 -3 -52 30 -13 80 -27 269 -21 278 3 5 28 10
54 10 46 0 49 -1 100 -65 59 -73 71 -83 66 -58 -2 10 -6 44 -9 75 -5 62 -4 63
70 67 l32 1 6 -72z m-394 -118 c41 -82 72 -151 70 -153 -3 -3 -27 -7 -53 -10
-44 -4 -49 -3 -60 20 -9 21 -16 24 -40 19 -16 -3 -40 -6 -53 -6 -17 0 -24 -6
-24 -19 0 -25 -14 -33 -67 -41 -54 -8 -54 -12 -5 180 l37 145 50 6 c28 3 55 7
60 7 6 1 44 -65 85 -148z m2531 127 c58 -39 81 -84 77 -145 -8 -88 -63 -142
-151 -150 -157 -13 -248 164 -139 273 36 36 56 44 123 44 42 1 64 -5 90 -22z
m208 -13 c28 -6 37 -17 74 -88 39 -78 41 -80 48 -51 4 17 7 44 8 60 2 50 13
58 66 51 l47 -8 -6 -46 c-3 -26 -13 -96 -23 -156 l-16 -108 -50 5 c-27 4 -51
8 -52 9 -2 2 -21 39 -43 83 -44 87 -43 87 -57 -17 -6 -48 -7 -48 -43 -48 -67
0 -67 0 -47 169 20 167 15 160 94 145z m-3100 -28 c31 -17 51 -54 51 -97 0
-44 -53 -94 -108 -104 l-42 -7 6 -47 c6 -45 4 -49 -17 -54 -33 -9 -79 -9 -79
1 0 4 -11 72 -24 152 -13 80 -23 146 -22 147 5 6 115 21 159 22 26 0 60 -5 76
-13z m1351 -378 c0 -7 3 -23 6 -35 5 -19 2 -23 -19 -23 -46 0 -87 -12 -87 -26
0 -10 13 -14 44 -14 39 0 45 -3 50 -25 9 -37 0 -45 -50 -45 -37 0 -44 -3 -44
-20 0 -18 7 -20 55 -20 l55 0 0 -34 0 -35 -94 -3 -95 -3 -5 30 c-3 17 -6 80
-8 140 l-3 110 90 6 c50 3 93 6 98 7 4 1 7 -4 7 -10z m239 -14 c17 -14 31 -34
31 -45 0 -16 -7 -19 -44 -19 -27 0 -48 6 -56 15 -9 11 -16 13 -23 6 -15 -15 7
-36 52 -50 40 -11 81 -51 81 -78 0 -8 -7 -27 -15 -43 -30 -57 -147 -65 -199
-13 -40 40 -34 53 24 53 28 0 50 -4 50 -10 0 -5 9 -10 20 -10 37 0 20 28 -27
44 -62 21 -93 51 -93 91 0 57 38 84 117 85 41 0 58 -5 82 -26z m246 16 c30 0
31 -1 78 -141 27 -78 47 -142 45 -144 -2 -1 -23 0 -47 3 -31 3 -45 9 -48 22
-4 14 -17 19 -55 22 -45 3 -52 0 -61 -19 -8 -19 -18 -23 -54 -23 -30 0 -43 4
-43 14 0 12 93 247 107 269 3 5 15 6 27 3 11 -3 35 -6 51 -6z m-715 -12 c0 -7
3 -23 6 -35 6 -21 3 -23 -36 -23 l-43 0 6 -110 c6 -109 6 -110 -16 -110 -12 0
-32 -3 -44 -6 -20 -6 -21 -2 -28 73 -12 154 -6 138 -53 135 -42 -2 -42 -2 -42
32 l0 34 63 6 c34 4 87 8 117 9 30 2 58 4 63 5 4 1 7 -4 7 -10z m1014 -63 c21
-36 41 -67 46 -70 4 -3 11 24 15 60 l7 65 44 0 c51 0 49 14 33 -163 -12 -123
-13 -128 -33 -123 -12 3 -32 6 -46 6 -20 0 -32 13 -64 70 -22 39 -43 70 -48
70 -4 0 -8 -29 -8 -65 l0 -65 -45 0 -45 0 0 48 c0 27 3 90 6 140 l7 92 46 0
47 0 38 -65z m-2280 14 c23 -27 36 -79 20 -79 -17 0 -46 24 -59 50 -32 62 -6
82 39 29z m983 -3 c30 -36 29 -77 -3 -116 l-27 -31 32 -44 c17 -24 31 -46 31
-49 0 -3 -22 -6 -49 -6 -45 0 -50 2 -75 40 -14 22 -29 40 -33 40 -3 0 -3 -20
0 -44 l6 -43 -42 -6 c-23 -3 -43 -4 -45 -2 -7 7 -33 237 -30 259 2 17 12 22
53 27 28 4 74 6 104 4 45 -2 58 -7 78 -29z m1665 18 l36 -6 31 -127 c18 -69
34 -134 37 -144 5 -16 0 -18 -38 -15 -33 2 -45 8 -53 25 -17 38 -109 48 -120
12 -6 -18 -12 -20 -48 -14 -23 4 -44 9 -47 12 -4 4 65 150 106 221 26 43 33
46 96 36z m804 -26 c-6 -31 -46 -78 -67 -78 -21 0 -8 53 20 81 39 39 55 38 47
-3z m-3348 10 c17 -17 15 -63 -4 -99 -32 -63 -70 3 -39 70 19 44 25 47 43 29z
m576 -139 c72 -137 72 -139 1 -139 -25 0 -34 5 -38 21 -4 15 -11 20 -22 15 -9
-3 -32 -6 -50 -6 -26 0 -35 -5 -41 -22 -4 -13 -12 -26 -18 -30 -16 -11 -76
-10 -76 1 0 16 59 274 64 278 8 8 101 20 108 14 3 -3 36 -63 72 -132z m2659
106 c21 -43 21 -74 2 -99 -17 -22 -17 -22 -39 21 -18 37 -20 66 -6 94 15 27
24 24 43 -16z m-454 18 c26 -7 25 -4 5 -169 l-6 -51 41 -7 c37 -6 41 -9 41
-36 0 -35 1 -34 -105 -19 -55 8 -75 15 -75 26 0 9 7 71 17 139 17 135 17 135
82 117z m-2719 -105 c0 -37 -27 -91 -43 -85 -7 2 -16 16 -21 30 -8 21 -5 37
13 74 22 45 24 46 37 28 8 -10 14 -32 14 -47z m3125 1 c31 -67 -7 -133 -39
-70 -19 36 -21 82 -4 99 18 18 24 15 43 -29z m-3255 11 c29 -29 25 -37 -21
-45 -33 -6 -47 -3 -67 12 -47 35 -38 49 36 52 20 1 39 -6 52 -19z m3449 -5 c2
-3 -6 -16 -19 -30 -18 -19 -34 -25 -66 -25 -55 0 -65 17 -29 48 24 20 35 23
69 18 22 -4 42 -9 45 -11z m-3268 -62 c7 -19 4 -36 -12 -71 l-20 -47 -20 24
c-24 29 -24 42 1 92 22 42 35 43 51 2z m3019 -13 c23 -45 25 -68 6 -92 -18
-24 -23 -23 -41 12 -17 34 -19 73 -5 101 14 26 17 25 40 -21z m-3152 4 c39
-27 28 -44 -28 -44 -49 0 -90 23 -90 50 0 16 93 12 118 -6z m3336 0 c20 -8 6
-38 -25 -55 -23 -12 -99 -3 -99 12 0 35 76 61 124 43z m-3276 -87 c28 -29 20
-37 -37 -37 -42 0 -91 27 -91 52 0 4 24 8 53 8 43 0 58 -5 75 -23z m3242 9 c0
-36 -51 -64 -105 -58 -39 5 -43 16 -18 44 12 13 30 18 70 18 29 0 53 -2 53 -4z"/>
<path d="M1430 1281 c0 -71 0 -71 28 -71 42 1 66 25 66 65 0 42 -18 62 -62 71
l-32 7 0 -72z"/>
<path d="M2422 1288 c-13 -36 -14 -33 17 -43 22 -7 23 -5 16 27 -10 48 -19 52
-33 16z"/>
<path d="M670 1238 c0 -7 -3 -23 -6 -35 -5 -20 -2 -23 20 -23 30 0 31 2 11 40
-17 32 -25 38 -25 18z"/>
<path d="M3196 1271 c-27 -30 -18 -91 17 -111 24 -13 30 -13 55 0 21 13 28 24
30 57 4 48 -16 73 -57 73 -15 0 -36 -9 -45 -19z"/>
<path d="M325 1240 c-12 -20 6 -51 28 -48 31 4 31 52 0 56 -11 2 -24 -2 -28
-8z"/>
<path d="M2231 809 c-14 -41 -15 -39 15 -39 24 0 25 3 19 28 -10 42 -22 46
-34 11z"/>
<path d="M1158 833 c-11 -3 -18 -14 -18 -29 0 -18 5 -24 23 -24 23 0 47 16 47
32 0 12 -33 25 -52 21z"/>
<path d="M2896 771 c-22 -41 -20 -51 9 -51 24 0 26 2 19 38 -9 49 -10 49 -28
13z"/>
<path d="M848 733 c-3 -21 -4 -39 -3 -41 2 -2 14 0 28 3 26 7 26 7 9 41 -9 18
-20 34 -23 34 -4 0 -9 -17 -11 -37z"/>
<path d="M2963 300 c-13 -6 -23 -18 -23 -30 0 -11 -4 -20 -10 -20 -5 0 -10 -9
-10 -20 0 -11 5 -20 10 -20 6 0 10 -25 10 -55 0 -48 2 -55 20 -55 18 0 20 7
20 55 0 30 5 55 10 55 6 0 10 9 10 20 0 11 -5 20 -12 20 -9 0 -9 3 0 12 13 13
16 48 5 47 -5 0 -18 -4 -30 -9z"/>
<path d="M3024 299 c-8 -14 21 -43 35 -35 19 12 13 46 -8 46 -11 0 -23 -5 -27
-11z"/>
<path d="M1450 269 c0 -29 -2 -30 -34 -24 -45 9 -76 -20 -76 -70 0 -58 44 -89
91 -65 13 7 19 7 19 0 0 -5 9 -10 20 -10 20 0 21 5 18 97 -3 83 -5 96 -20 99
-14 2 -18 -5 -18 -27z m-6 -81 c8 -14 7 -21 -6 -34 -30 -30 -75 9 -48 42 16
18 39 15 54 -8z"/>
<path d="M2130 264 c0 -31 -2 -34 -19 -24 -29 15 -49 12 -71 -10 -23 -23 -27
-77 -6 -105 10 -15 28 -20 75 -21 l62 -3 -3 96 c-3 83 -5 96 -20 99 -14 2 -18
-5 -18 -32z m-6 -76 c8 -14 7 -21 -6 -34 -30 -30 -75 9 -48 42 16 18 39 15 54
-8z"/>
<path d="M230 265 c0 -9 9 -15 25 -15 24 0 25 -2 25 -75 0 -68 2 -75 20 -75
18 0 20 7 20 75 0 73 1 75 25 75 16 0 25 6 25 15 0 12 -14 15 -70 15 -56 0
-70 -3 -70 -15z"/>
<path d="M400 191 c0 -80 28 -109 81 -81 13 7 19 7 19 0 0 -5 9 -10 20 -10 18
0 20 7 20 75 0 68 -2 75 -20 75 -17 0 -20 -7 -20 -42 0 -52 -11 -71 -36 -66
-15 2 -20 14 -22 56 -3 44 -6 52 -23 52 -17 0 -19 -7 -19 -59z"/>
<path d="M630 139 c0 -102 1 -109 20 -109 17 0 20 7 20 40 0 41 0 41 33 35 47
-9 79 19 79 69 0 54 -20 70 -92 72 l-60 3 0 -110z m105 36 c0 -35 -31 -47 -51
-20 -18 25 0 57 29 53 17 -2 22 -10 22 -33z"/>
<path d="M834 242 c-16 -10 -34 -48 -34 -70 0 -47 75 -95 95 -62 5 8 11 7 21
-1 29 -24 42 -4 40 68 l-1 68 -55 2 c-31 1 -60 -1 -66 -5z m71 -67 c0 -25 -4
-30 -25 -30 -16 0 -26 6 -28 18 -6 30 6 49 30 45 18 -2 23 -9 23 -33z"/>
<path d="M990 174 c0 -67 2 -74 19 -74 17 0 20 8 23 53 3 48 5 52 28 52 23 0
25 -4 28 -52 3 -45 6 -53 23 -53 17 0 19 7 19 58 0 78 -7 86 -79 88 l-61 3 0
-75z"/>
<path d="M1180 230 c-27 -27 -27 -83 0 -110 22 -22 42 -25 71 -10 13 7 19 7
19 0 0 -5 9 -10 20 -10 18 0 20 7 20 75 0 68 -2 75 -20 75 -11 0 -20 -5 -20
-12 0 -9 -3 -9 -12 0 -18 18 -56 14 -78 -8z m85 -41 c14 -43 -45 -66 -61 -24
-8 19 13 45 37 45 10 0 21 -10 24 -21z"/>
<path d="M1540 230 c-44 -44 -13 -130 48 -130 24 0 72 30 72 46 0 3 -21 4 -46
2 -31 -2 -48 1 -51 10 -3 8 10 12 46 12 44 0 51 3 51 20 0 29 -36 60 -70 60
-17 0 -39 -9 -50 -20z m70 -25 c11 -13 8 -15 -20 -15 -28 0 -31 2 -20 15 7 8
16 15 20 15 4 0 13 -7 20 -15z"/>
<path d="M1690 175 c0 -68 2 -75 19 -75 17 0 20 8 23 48 3 40 6 47 26 50 16 3
22 10 22 28 0 27 -3 28 -31 14 -13 -7 -19 -7 -19 0 0 5 -9 10 -20 10 -18 0
-20 -7 -20 -75z"/>
<path d="M1819 231 c-52 -42 -17 -131 51 -131 45 0 74 31 73 76 -2 66 -72 97
-124 55z m76 -56 c0 -25 -4 -30 -25 -30 -16 0 -26 6 -28 18 -6 30 6 49 30 45
18 -2 23 -9 23 -33z"/>
<path d="M2220 230 c-24 -24 -27 -82 -5 -104 35 -34 96 -32 115 5 11 19 9 20
-32 17 -24 -2 -45 2 -48 7 -3 6 15 11 43 13 42 3 47 6 47 27 0 50 -82 73 -120
35z m70 -25 c11 -13 8 -15 -21 -15 -32 1 -33 1 -15 15 24 18 21 18 36 0z"/>
<path d="M2442 234 c-16 -11 -22 -25 -22 -55 0 -74 63 -103 117 -54 l28 25
-50 -2 c-49 -3 -50 -3 -50 27 0 30 1 30 48 27 45 -3 48 -2 38 16 -19 35 -71
43 -109 16z"/>
<path d="M2599 231 c-17 -13 -23 -29 -23 -56 0 -85 114 -105 143 -25 26 76
-57 132 -120 81z m76 -56 c0 -25 -4 -30 -25 -30 -16 0 -26 6 -28 18 -6 30 6
49 30 45 18 -2 23 -9 23 -33z"/>
<path d="M2752 177 c3 -64 5 -72 23 -72 17 0 20 8 23 53 3 47 5 52 27 52 22 0
24 -5 27 -52 3 -45 6 -53 23 -53 17 0 20 8 23 50 4 73 -11 89 -87 91 l-62 3 3
-72z"/>
<path d="M3030 175 c0 -68 2 -75 20 -75 18 0 20 7 20 75 0 68 -2 75 -20 75
-18 0 -20 -7 -20 -75z"/>
<path d="M3120 233 c-15 -10 -20 -25 -20 -57 0 -56 17 -70 91 -72 l59 -3 0 73
0 73 -55 0 c-31 0 -63 -6 -75 -14z m83 -45 c13 -20 -6 -48 -34 -48 -20 0 -36
40 -24 60 10 16 46 8 58 -12z"/>
<path d="M3284 235 c-3 -7 -4 -39 -2 -71 3 -51 6 -59 23 -59 17 0 21 8 25 50
4 42 8 50 28 53 25 4 24 5 26 -58 2 -37 5 -45 21 -45 17 0 20 8 23 50 4 72
-12 89 -83 91 -37 1 -58 -2 -61 -11z"/>
<path d="M3455 240 c-10 -16 4 -30 31 -30 l26 0 -32 -40 c-44 -55 -35 -72 32
-68 40 2 54 7 56 20 2 12 -5 17 -28 20 l-32 3 31 39 c17 22 30 44 28 50 -5 14
-103 20 -112 6z"/>
<path d="M3600 223 c-27 -34 -25 -69 4 -98 20 -20 33 -23 77 -22 l54 2 0 70 0
69 -57 3 c-51 2 -59 -1 -78 -24z m85 -48 c0 -25 -4 -30 -25 -30 -16 0 -26 6
-28 18 -6 30 6 49 30 45 18 -2 23 -9 23 -33z"/>
</g>
</svg>
